<svg width="45" height="45" viewBox="0 0 45 45" fill="none" xmlns="http://www.w3.org/2000/svg">
<path d="M44.1211 43.2422H43.7695V17.7539C43.7695 17.2685 43.376 16.875 42.8906 16.875H35.8594C35.374 16.875 34.9805 17.2685 34.9805 17.7539V43.2422H32.5195V22.5C32.5195 22.0146 32.126 21.6211 31.6406 21.6211H24.6094C24.124 21.6211 23.7305 22.0146 23.7305 22.5V43.2422H21.2695V27.5882C21.2695 27.1027 20.876 26.7093 20.3906 26.7093H13.3594C12.874 26.7093 12.4805 27.1027 12.4805 27.5882V43.2422H10.0195V34.2773C10.0195 33.7919 9.62596 33.3984 9.14062 33.3984H2.10938C1.62404 33.3984 1.23047 33.7919 1.23047 34.2773V43.2422H0.878906C0.393574 43.2422 0 43.6357 0 44.1211C0 44.6065 0.393574 45 0.878906 45H44.1211C44.6064 45 45 44.6065 45 44.1211C45 43.6357 44.6064 43.2422 44.1211 43.2422ZM2.98828 43.2422V35.1562H8.26172V43.2422H2.98828ZM14.2383 43.2422V28.4671H19.5117V43.2422H14.2383ZM25.4883 43.2422V23.3789H30.7617V43.2422H25.4883ZM36.7383 43.2422V18.6328H42.0117V43.2422H36.7383Z" fill="white"/>
<path d="M36.0814 12.7165C37.0245 13.3334 37.6752 13.5273 38.4959 13.5809V14.2383C38.4959 14.7237 38.8895 15.1172 39.3748 15.1172C39.8602 15.1172 40.2537 14.7237 40.2537 14.2383V13.4793C41.8027 13.0819 42.7955 11.757 43.0152 10.4505C43.3022 8.74336 42.4102 7.2595 40.7428 6.67011C40.5818 6.61315 40.4179 6.55409 40.2538 6.49327V3.34828C40.6473 3.48864 40.9026 3.66987 40.9163 3.67963C41.3029 3.96853 41.8508 3.89162 42.1428 3.50622C42.4359 3.11933 42.3599 2.56808 41.973 2.27496C41.929 2.24165 41.254 1.74067 40.2537 1.5242V0.878906C40.2537 0.393486 39.8602 0 39.3748 0C38.8895 0 38.4959 0.393486 38.4959 0.878906V1.51901C38.3978 1.54046 38.299 1.5648 38.1991 1.59486C37.0951 1.92656 36.2704 2.86919 36.0464 4.05483C35.8413 5.14151 36.1921 6.19181 36.9624 6.79588C37.3533 7.10253 37.837 7.38272 38.4959 7.67725V11.8178C37.9762 11.7683 37.6245 11.6252 37.0438 11.2453C36.6375 10.9796 36.0927 11.0936 35.8271 11.4998C35.5613 11.9059 35.6753 12.4507 36.0814 12.7165ZM41.2817 10.159C41.1887 10.7117 40.8404 11.2948 40.2537 11.6086V8.36429C41.4072 8.82756 41.3337 9.8499 41.2817 10.159ZM38.0472 5.41274C37.7995 5.21842 37.6921 4.81342 37.7738 4.381C37.8429 4.01493 38.0682 3.58172 38.496 3.3627V5.71078C38.3296 5.61437 38.1778 5.51514 38.0472 5.41274Z" fill="white"/>
<path d="M5.74259 26.6278C5.90747 26.7926 6.13097 26.8852 6.36406 26.8852C6.59715 26.8852 6.82065 26.7926 6.98553 26.6278L17.1278 16.4856L20.0385 19.3964C20.2034 19.5612 20.4269 19.6538 20.66 19.6538C20.8931 19.6538 21.1166 19.5612 21.2815 19.3964L30.9156 9.76219L31.6328 10.4794C31.8842 10.7307 32.2622 10.806 32.5906 10.6698C32.919 10.5338 33.1332 10.2133 33.1332 9.85781V4.39453C33.1332 3.90911 32.7396 3.51562 32.2543 3.51562H26.7909C26.4354 3.51562 26.1149 3.72981 25.9789 4.05817C25.8429 4.38662 25.9181 4.76464 26.1694 5.01601L26.8955 5.74198L20.66 11.9776L17.7492 9.0668C17.4059 8.72358 16.8496 8.72358 16.5062 9.0668L2.96542 22.6077C2.6222 22.9509 2.6222 23.5074 2.96542 23.8506L5.74259 26.6278ZM17.1278 10.9314L20.0385 13.8422C20.2034 14.007 20.4269 14.0997 20.66 14.0997C20.8931 14.0997 21.1166 14.007 21.2815 13.8422L28.76 6.36363C28.9248 6.19884 29.0174 5.97524 29.0174 5.74216C29.0174 5.57499 28.9698 5.41274 28.8821 5.27353H31.3754V7.77006C31.0367 7.56185 30.5876 7.60447 30.2941 7.89785L20.6601 17.532L17.7493 14.6211C17.406 14.278 16.8497 14.278 16.5063 14.6211L6.36406 24.7634L4.82993 23.2291L17.1278 10.9314Z" fill="white"/>
</svg>
