<svg width="45" height="45" viewBox="0 0 45 45" fill="none" xmlns="http://www.w3.org/2000/svg">
<path d="M39.7591 19.4809C39.7591 18.5815 39.0274 17.8497 38.1279 17.8497H36.0385V7.08311H37.4851C37.8186 7.08311 38.12 6.89862 38.2717 6.60164C38.4234 6.30466 38.3963 5.9523 38.2008 5.68213L34.3561 0.365449C34.1912 0.137637 33.925 0.00105469 33.6439 0C33.3662 0.000615234 33.0955 0.133594 32.929 0.359912L29.0176 5.67624C28.8189 5.94606 28.7895 6.29947 28.9407 6.59839C29.0918 6.89739 29.3938 7.08319 29.7289 7.08319H31.2457V17.8498H27.8255C26.9261 17.8498 26.1943 18.5815 26.1943 19.481V20.9944C26.1943 21.3588 26.3159 21.6946 26.5186 21.9664C26.316 22.2383 26.1943 22.574 26.1943 22.9384V24.4518C26.1943 24.8162 26.3159 25.1519 26.5186 25.4238C26.316 25.6956 26.1943 26.0314 26.1943 26.3958V27.9092C26.1943 28.0164 26.206 28.1207 26.2261 28.222H24.9314V13.9735H26.378C26.7115 13.9735 27.0129 13.789 27.1646 13.492C27.3163 13.195 27.2892 12.8427 27.0937 12.5725L23.2492 7.25599C23.0845 7.02809 22.8183 6.89142 22.537 6.89027C22.5358 6.89027 22.5347 6.89027 22.5334 6.89027C22.2536 6.89027 21.9878 7.02457 21.8219 7.25019L17.9105 12.5665C17.7118 12.8363 17.6824 13.1897 17.8336 13.4887C17.9847 13.7877 18.2868 13.9735 18.6219 13.9735H20.1385V28.2217H17.1981C16.2987 28.2217 15.567 28.9534 15.567 29.8528V30.7426C15.0165 30.508 14.4329 30.3363 13.8242 30.2406V21.3387H15.2708C15.6042 21.3387 15.9056 21.1542 16.0573 20.8573C16.2091 20.5603 16.1819 20.208 15.9865 19.9377L12.1421 14.6215C11.9774 14.3936 11.7113 14.2568 11.4301 14.2556C11.1484 14.2543 10.8815 14.3888 10.7147 14.6154L6.8032 19.9319C6.60466 20.2017 6.5753 20.5552 6.72647 20.8541C6.87773 21.1529 7.17973 21.3387 7.51477 21.3387H9.03141V23.6426C9.03141 24.0067 9.32654 24.3018 9.69059 24.3018C10.0546 24.3018 10.3498 24.0067 10.3498 23.6426V20.9037C10.3498 20.4166 9.95347 20.0203 9.46646 20.0203H8.3753L11.4236 15.8771L14.4198 20.0203H13.3895C12.9025 20.0203 12.5062 20.4166 12.5062 20.9037V30.1538C11.755 30.1698 11.0312 30.2974 10.3502 30.5216V26.7188C10.3502 26.3546 10.0551 26.0596 9.69103 26.0596C9.32698 26.0596 9.03185 26.3546 9.03185 26.7188V31.1037C6.77174 32.3781 5.24121 34.8005 5.24121 37.5748C5.24121 41.669 8.57209 44.9999 12.6663 44.9999C14.4187 44.9999 16.0301 44.3883 17.3016 43.3691H38.1279C39.0273 43.3691 39.7591 42.6374 39.7591 41.7379V40.2245C39.7591 39.8601 39.6376 39.5244 39.4348 39.2526C39.6375 38.9807 39.7591 38.6451 39.7591 38.2807V36.7672C39.7591 36.4028 39.6376 36.0671 39.4348 35.7952C39.6375 35.5234 39.7591 35.1876 39.7591 34.8232V33.3098C39.7591 32.9454 39.6376 32.6097 39.4348 32.3379C39.6375 32.066 39.7591 31.7303 39.7591 31.3659V29.8524C39.7591 29.488 39.6376 29.1524 39.4349 28.8805C39.6376 28.6087 39.7591 28.273 39.7591 27.9086V26.3951C39.7591 26.0307 39.6376 25.695 39.4348 25.4232C39.6375 25.1513 39.7591 24.8156 39.7591 24.4512V22.9378C39.7591 22.5734 39.6376 22.2376 39.4348 21.9658C39.6375 21.694 39.7591 21.3582 39.7591 20.9938V19.4809ZM30.5892 5.76483L33.6375 1.62149L36.6337 5.76483H35.6035C35.1165 5.76483 34.7202 6.16113 34.7202 6.64813V17.8498H32.5641V6.64813C32.5641 6.16113 32.1678 5.76483 31.6807 5.76483H30.5892ZM19.4822 12.6551L22.5305 8.51177L25.5266 12.6551H24.4965C24.0094 12.6551 23.6131 13.0514 23.6131 13.5384V28.2217H21.457V13.5384C21.457 13.0514 21.0607 12.6551 20.5737 12.6551H19.4822ZM12.6663 43.6816C9.29903 43.6816 6.55957 40.9422 6.55957 37.5749C6.55957 34.2076 9.29903 31.4682 12.6663 31.4682C16.0336 31.4682 18.773 34.2076 18.773 37.5749C18.773 40.9422 16.0336 43.6816 12.6663 43.6816ZM27.8136 41.7381C27.8136 41.9106 27.6733 42.0509 27.5008 42.0509H18.5858C19.0711 41.4108 19.4537 40.6896 19.7124 39.912H27.5008C27.6733 39.912 27.8136 40.0523 27.8136 40.2247V41.7381ZM27.8136 34.8235C27.8136 34.9959 27.6733 35.1363 27.5008 35.1363H24.9611C24.5969 35.1363 24.3019 35.4313 24.3019 35.7955C24.3019 36.1596 24.5969 36.4547 24.9611 36.4547H27.5008C27.6733 36.4547 27.8136 36.595 27.8136 36.7675V38.2809C27.8136 38.4534 27.6733 38.5937 27.5008 38.5937H20.0198C20.0657 38.2605 20.0914 37.9208 20.0914 37.575C20.0914 37.1941 20.0611 36.8204 20.0054 36.4547H21.8849C22.2489 36.4547 22.5441 36.1597 22.5441 35.7956C22.5441 35.4314 22.2489 35.1364 21.8849 35.1364H19.6782C19.4061 34.3564 19.0085 33.6349 18.5078 32.9975H27.5008C27.6733 32.9975 27.8136 33.1378 27.8136 33.3103V34.8235ZM27.8136 31.3662C27.8136 31.5387 27.6733 31.679 27.5008 31.679H17.1984C17.188 31.679 17.1783 31.6769 17.1681 31.676C17.0835 31.6112 16.9975 31.5483 16.91 31.4872C16.8944 31.4499 16.8856 31.4091 16.8856 31.3662V29.8528C16.8856 29.6803 17.0258 29.54 17.1984 29.54H27.5008C27.6733 29.54 27.8136 29.6803 27.8136 29.8528V31.3662ZM38.4408 41.7381C38.4408 41.9106 38.3004 42.0509 38.1279 42.0509H29.1011C29.1209 41.9496 29.132 41.8452 29.132 41.7381V40.2246C29.132 40.1175 29.1203 40.0133 29.1004 39.9119H38.1279C38.3004 39.9119 38.4408 40.0522 38.4408 40.2246V41.7381ZM38.4408 38.2808C38.4408 38.4533 38.3004 38.5937 38.1279 38.5937H29.1003C29.1203 38.4923 29.132 38.3881 29.132 38.2808V36.7674C29.132 36.6602 29.1203 36.5559 29.1003 36.4546H38.1279C38.3004 36.4546 38.4408 36.5949 38.4408 36.7674V38.2808ZM38.4408 34.8235C38.4408 34.9959 38.3004 35.1363 38.1279 35.1363H29.1003C29.1203 35.035 29.132 34.9307 29.132 34.8235V33.3101C29.132 33.203 29.1203 33.0986 29.1003 32.9973H38.1279C38.3004 32.9973 38.4408 33.1377 38.4408 33.3101V34.8235ZM38.4408 27.909C38.4408 28.0812 38.3007 28.2213 38.1286 28.2217C38.1284 28.2217 38.1282 28.2217 38.128 28.2217H36.4747C36.1106 28.2217 35.8155 28.5167 35.8155 28.8809C35.8155 29.245 36.1106 29.54 36.4747 29.54H38.1263C38.1268 29.54 38.1274 29.5401 38.1279 29.5401H38.1285C38.3007 29.5405 38.4407 29.6806 38.4407 29.8528V31.3663C38.4407 31.5388 38.3003 31.6791 38.1279 31.6791H29.1003C29.1203 31.5778 29.132 31.4735 29.132 31.3663V29.8528C29.132 29.7458 29.1209 29.6414 29.1011 29.54H33.3986C33.7627 29.54 34.0577 29.245 34.0577 28.8809C34.0577 28.5167 33.7627 28.2217 33.3986 28.2217H27.8256C27.8254 28.2217 27.8252 28.2217 27.8251 28.2217C27.6529 28.2213 27.5129 28.0812 27.5129 27.909V26.3955C27.5129 26.223 27.6532 26.0827 27.8257 26.0827H38.1279C38.3004 26.0827 38.4408 26.223 38.4408 26.3955V27.909ZM38.4408 24.4516C38.4408 24.6241 38.3004 24.7644 38.1279 24.7644H27.8256C27.6531 24.7644 27.5128 24.6241 27.5128 24.4516V22.9382C27.5128 22.7658 27.6531 22.6254 27.8256 22.6254H38.1279C38.3004 22.6254 38.4408 22.7658 38.4408 22.9382V24.4516ZM38.4408 20.9943C38.4408 21.1668 38.3004 21.3071 38.1279 21.3071H27.8256C27.6531 21.3071 27.5128 21.1668 27.5128 20.9943V19.4809C27.5128 19.3084 27.6531 19.1681 27.8256 19.1681H38.1279C38.3004 19.1681 38.4408 19.3084 38.4408 19.4809V20.9943Z" fill="white"/>
<path d="M13.3906 36.9157H11.9417C11.5825 36.9157 11.29 36.6234 11.29 36.264C11.29 35.9047 11.5824 35.6124 11.9417 35.6124H14.4944C14.8585 35.6124 15.1536 35.3174 15.1536 34.9532C15.1536 34.5891 14.8585 34.294 14.4944 34.294H13.3253V33.6079C13.3253 33.2437 13.0302 32.9487 12.6661 32.9487C12.3021 32.9487 12.007 33.2437 12.007 33.6079V34.294H11.9417C10.8555 34.294 9.97168 35.1778 9.97168 36.264C9.97168 37.3503 10.8554 38.2341 11.9417 38.2341H13.3905C13.7498 38.2341 14.0422 38.5264 14.0422 38.8857C14.0422 39.2451 13.7499 39.5374 13.3905 39.5374H10.8379C10.4739 39.5374 10.1787 39.8325 10.1787 40.1966C10.1787 40.5607 10.4739 40.8558 10.8379 40.8558H12.007V41.5419C12.007 41.9061 12.3021 42.2011 12.6661 42.2011C13.0302 42.2011 13.3253 41.9061 13.3253 41.5419V40.8558H13.3905C14.4768 40.8558 15.3606 39.972 15.3606 38.8857C15.3606 37.7995 14.4769 36.9157 13.3906 36.9157Z" fill="white"/>
</svg>
