<svg width="45" height="45" viewBox="0 0 45 45" fill="none" xmlns="http://www.w3.org/2000/svg">
              <path d="M44.2269 31.4227L39.1734 26.3692C44.9699 14.2059 36.0605 0.000946045 22.5001 0.000946045C8.96328 0.000946045 0.0187386 14.1815 5.82681 26.3692L0.77328 31.4227C-0.633146 32.8291 -0.0351379 35.2294 1.87191 35.8101L7.48531 37.5151L9.1903 43.1285C9.76871 45.028 12.164 45.6383 13.5777 44.2272L20.9551 36.8498C21.9692 36.9339 22.9963 36.9367 24.0452 36.8498L31.4226 44.2272C32.8312 45.6358 35.2304 45.0319 35.81 43.1285L37.515 37.5151L43.1284 35.8101C45.0384 35.2285 45.631 32.8268 44.2269 31.4227ZM11.7136 42.3622L10.0078 36.7488C9.75201 35.9051 9.09547 35.2485 8.25181 34.992L2.63841 33.287L7.18226 28.7431C9.65015 32.4063 13.396 35.1405 17.7755 36.3007L11.7136 42.3622ZM9.08747 26.8376C2.4635 16.2892 10.1701 2.63758 22.5001 2.63758C34.9297 2.63758 42.4772 16.3838 35.9127 26.8376C29.6974 36.7499 15.302 36.7486 9.08747 26.8376ZM36.7486 34.9919C35.9048 35.2485 35.2483 35.9051 34.9917 36.7487L33.2867 42.3621L27.2251 36.3005C31.6046 35.1403 35.3503 32.4061 37.8183 28.7429L42.3622 33.2868L36.7486 34.9919Z" fill="white"/>
              <path d="M22.5004 5.27351C13.6779 5.27351 7.29969 13.8372 9.89017 22.3054C12.0973 29.5376 19.9265 33.3802 26.93 30.8745C32.0309 29.0489 35.6836 24.1689 35.6836 18.4568C35.6836 11.1875 29.7696 5.27351 22.5004 5.27351ZM15.3903 26.2383C8.27132 19.7406 12.9546 7.91014 22.5004 7.91014C28.997 7.91014 33.9423 13.7558 32.916 20.1108C31.6248 28.3481 21.5986 31.9195 15.3903 26.2383Z" fill="white"/>
              <path d="M26.5001 14.8914L20.6891 19.2047L18.6761 17.0598C18.1778 16.5288 17.3436 16.5023 16.8126 17.0007C16.2818 17.4989 16.2552 18.3333 16.7536 18.8641L19.5704 21.8655C20.0288 22.3541 20.7803 22.4206 21.3174 22.022L28.0716 17.0086C28.6562 16.5747 28.7783 15.7489 28.3444 15.1642C27.9105 14.5796 27.0848 14.4575 26.5001 14.8914Z" fill="white"/>
            </svg>