<?xml version="1.0" encoding="utf-8"?>
<!-- Generator: Adobe Illustrator 19.1.0, SVG Export Plug-In . SVG Version: 6.00 Build 0)  -->
<svg version="1.1" id="Layer_1" xmlns="http://www.w3.org/2000/svg" xmlns:xlink="http://www.w3.org/1999/xlink" x="0px" y="0px"
	 viewBox="0 0 64 64" style="enable-background:new 0 0 64 64;" xml:space="preserve">
<style type="text/css">
	.st0{fill:#49A341;}
	.st1{fill:url(#SVGID_1_);}
	.st2{fill:url(#SVGID_2_);}
	.st3{fill:url(#SVGID_3_);}
	.st4{fill:url(#SVGID_4_);}
	.st5{fill:url(#SVGID_5_);}
	.st6{fill:url(#SVGID_6_);}
	.st7{fill:url(#SVGID_7_);}
	.st8{fill:url(#SVGID_8_);}
	.st9{fill:url(#SVGID_9_);}
	.st10{fill:url(#SVGID_10_);}
	.st11{fill:url(#SVGID_11_);}
	.st12{fill:url(#SVGID_12_);}
	.st13{fill:url(#SVGID_13_);}
	.st14{fill:url(#SVGID_14_);}
	.st15{fill:url(#SVGID_15_);}
	.st16{fill:url(#SVGID_16_);}
	.st17{fill:url(#SVGID_17_);}
	.st18{fill:url(#SVGID_18_);}
	.st19{fill:url(#SVGID_19_);}
	.st20{fill:url(#SVGID_20_);}
	.st21{fill:url(#SVGID_21_);}
	.st22{fill:url(#SVGID_22_);}
	.st23{fill:url(#SVGID_23_);}
	.st24{fill:url(#SVGID_24_);}
	.st25{fill:url(#SVGID_25_);}
	.st26{fill:url(#SVGID_26_);}
	.st27{fill:#B7D972;}
	.st28{fill:url(#SVGID_27_);}
	.st29{fill:url(#SVGID_28_);}
	.st30{fill:url(#SVGID_29_);}
	.st31{fill:url(#SVGID_30_);}
	.st32{fill:#9BC1F9;}
	.st33{fill:#EDFDFC;}
	.st34{fill:url(#SVGID_31_);}
	.st35{fill:url(#SVGID_32_);}
	.st36{fill:url(#SVGID_33_);}
	.st37{fill:#F47257;}
	.st38{fill:url(#SVGID_34_);}
	.st39{fill:#50BFA5;}
	.st40{fill:#3C8F7C;}
	.st41{fill:url(#SVGID_35_);}
	.st42{fill:url(#SVGID_36_);}
	.st43{fill:url(#SVGID_37_);}
	.st44{fill:url(#SVGID_38_);}
	.st45{fill:url(#SVGID_39_);}
	.st46{fill:url(#SVGID_40_);}
	.st47{fill:url(#SVGID_41_);}
	.st48{fill:url(#SVGID_42_);}
	.st49{fill:#847D3D;}
	.st50{fill:url(#SVGID_43_);}
	.st51{fill:#FFFFFF;}
	.st52{fill:url(#SVGID_44_);}
	.st53{fill:url(#SVGID_45_);}
	.st54{fill:url(#SVGID_46_);}
	.st55{fill:url(#SVGID_47_);}
	.st56{fill:url(#SVGID_48_);}
	.st57{fill:url(#SVGID_49_);}
	.st58{fill:url(#SVGID_50_);}
	.st59{fill:url(#SVGID_51_);}
	.st60{fill:url(#SVGID_52_);}
	.st61{fill:url(#SVGID_53_);}
	.st62{fill:url(#SVGID_54_);}
	.st63{fill:url(#SVGID_55_);}
	.st64{fill:url(#SVGID_56_);}
	.st65{fill:url(#SVGID_57_);}
	.st66{fill:#13375B;}
	.st67{fill:#473B1E;}
	.st68{fill:url(#SVGID_58_);}
	.st69{fill:url(#SVGID_59_);}
	.st70{fill:url(#SVGID_60_);}
	.st71{fill:url(#SVGID_61_);}
	.st72{fill:url(#SVGID_62_);}
	.st73{fill:url(#SVGID_63_);}
	.st74{fill:url(#SVGID_64_);}
	.st75{fill:url(#SVGID_65_);}
	.st76{fill:url(#SVGID_66_);}
	.st77{fill:url(#SVGID_67_);}
	.st78{fill:url(#SVGID_68_);}
	.st79{fill:url(#SVGID_69_);}
	.st80{fill:#F7CC7F;}
	.st81{fill:#FAE0B2;}
	.st82{fill:url(#SVGID_70_);}
	.st83{fill:#F7A491;}
	.st84{fill:url(#SVGID_71_);}
	.st85{fill:url(#SVGID_72_);}
	.st86{fill:#48433E;}
	.st87{fill:#35312D;}
	.st88{fill:#5D3F24;}
	.st89{fill:#52351C;}
	.st90{fill:#735236;}
	.st91{fill:#DBDBDB;}
	.st92{fill:#E3E3E3;}
	.st93{fill:#FBFBFB;}
	.st94{fill:#FCC7AA;}
	.st95{fill:#FFD6BF;}
	.st96{fill:#E7E7E7;}
	.st97{fill:#ECECEC;}
	.st98{fill:#C4C4C4;}
	.st99{fill:#454545;}
	.st100{fill:#696969;}
	.st101{fill:#FAD3BE;}
	.st102{fill:#4A2727;}
	.st103{fill:#DCDBCA;}
	.st104{fill:#F2B33F;}
	.st105{fill:#CD951A;}
	.st106{fill:#FFDE5C;}
	.st107{fill:#FCCD49;}
	.st108{fill:#D47E15;}
	.st109{fill:#EFAE36;}
	.st110{fill:#ECAC32;}
	.st111{fill:#F7B943;}
	.st112{fill:#ECA336;}
	.st113{fill:#FFC84F;}
	.st114{fill:#CA8D17;}
	.st115{fill:#E7A630;}
	.st116{fill:#A35F0B;}
	.st117{fill:#FFE685;}
	.st118{fill:#F2CC45;}
	.st119{fill:#BD7E17;}
	.st120{fill:#DBAC3A;}
	.st121{fill:#E6BB42;}
	.st122{fill:#FFE152;}
	.st123{fill:#FFEF68;}
	.st124{fill:#F7C840;}
	.st125{fill:#F2BA3A;}
	.st126{fill:#FCD645;}
	.st127{fill:#D9952C;}
	.st128{fill:#BD7717;}
	.st129{enable-background:new    ;}
	.st130{clip-path:url(#SVGID_74_);enable-background:new    ;}
	.st131{fill:#D5AA39;}
	.st132{fill:#D8AD3B;}
	.st133{fill:#DAB13D;}
	.st134{fill:#DDB53E;}
	.st135{fill:#E0B940;}
	.st136{fill:#D2A638;}
	.st137{fill:#CFA236;}
	.st138{fill:#CC9E34;}
	.st139{fill:#C99B33;}
	.st140{fill:#C79731;}
	.st141{fill:#C49330;}
	.st142{fill:#C1902E;}
	.st143{fill:#BE8D2C;}
	.st144{clip-path:url(#SVGID_76_);enable-background:new    ;}
	.st145{clip-path:url(#SVGID_78_);enable-background:new    ;}
	.st146{clip-path:url(#SVGID_80_);enable-background:new    ;}
	.st147{fill:#E4BD42;}
	.st148{fill:#DB8730;}
	.st149{clip-path:url(#SVGID_82_);enable-background:new    ;}
	.st150{fill:#D46B15;}
	.st151{clip-path:url(#SVGID_84_);enable-background:new    ;}
	.st152{clip-path:url(#SVGID_86_);enable-background:new    ;}
	.st153{clip-path:url(#SVGID_88_);enable-background:new    ;}
	.st154{fill:#FFDD85;}
	.st155{fill:#BAA37A;}
	.st156{clip-path:url(#SVGID_90_);enable-background:new    ;}
	.st157{clip-path:url(#SVGID_92_);enable-background:new    ;}
	.st158{clip-path:url(#SVGID_94_);enable-background:new    ;}
	.st159{clip-path:url(#SVGID_96_);enable-background:new    ;}
	.st160{fill:#BA9E7A;}
	.st161{clip-path:url(#SVGID_98_);enable-background:new    ;}
	.st162{clip-path:url(#SVGID_100_);enable-background:new    ;}
	.st163{clip-path:url(#SVGID_102_);enable-background:new    ;}
	.st164{clip-path:url(#SVGID_104_);enable-background:new    ;}
	.st165{clip-path:url(#SVGID_106_);enable-background:new    ;}
	.st166{clip-path:url(#SVGID_108_);enable-background:new    ;}
	.st167{clip-path:url(#SVGID_110_);enable-background:new    ;}
	.st168{clip-path:url(#SVGID_112_);enable-background:new    ;}
	.st169{fill:#F2CE45;}
	.st170{fill:#BD8017;}
	.st171{fill:#DBAD3A;}
	.st172{fill:#E6BD42;}
	.st173{fill:#EFB636;}
	.st174{fill:#FFF168;}
	.st175{fill:#FFFA68;}
	.st176{fill:#ECB432;}
	.st177{fill:#F7C143;}
	.st178{fill:#D9982C;}
	.st179{fill:#BD7B17;}
	.st180{fill:#FFE55C;}
	.st181{fill:#A3670B;}
	.st182{fill:#E7AE30;}
	.st183{fill:#FFEB85;}
	.st184{clip-path:url(#SVGID_114_);enable-background:new    ;}
	.st185{clip-path:url(#SVGID_116_);enable-background:new    ;}
	.st186{clip-path:url(#SVGID_118_);enable-background:new    ;}
	.st187{clip-path:url(#SVGID_120_);enable-background:new    ;}
	.st188{clip-path:url(#SVGID_122_);enable-background:new    ;}
	.st189{clip-path:url(#SVGID_124_);enable-background:new    ;}
	.st190{clip-path:url(#SVGID_126_);enable-background:new    ;}
	.st191{clip-path:url(#SVGID_128_);enable-background:new    ;}
	.st192{clip-path:url(#SVGID_130_);enable-background:new    ;}
	.st193{clip-path:url(#SVGID_132_);enable-background:new    ;}
	.st194{clip-path:url(#SVGID_134_);enable-background:new    ;}
	.st195{clip-path:url(#SVGID_136_);enable-background:new    ;}
	.st196{clip-path:url(#SVGID_138_);enable-background:new    ;}
	.st197{clip-path:url(#SVGID_140_);enable-background:new    ;}
	.st198{clip-path:url(#SVGID_142_);enable-background:new    ;}
	.st199{clip-path:url(#SVGID_144_);enable-background:new    ;}
	.st200{clip-path:url(#SVGID_146_);enable-background:new    ;}
	.st201{clip-path:url(#SVGID_148_);enable-background:new    ;}
	.st202{clip-path:url(#SVGID_150_);enable-background:new    ;}
	.st203{clip-path:url(#SVGID_152_);enable-background:new    ;}
	.st204{clip-path:url(#SVGID_154_);enable-background:new    ;}
	.st205{clip-path:url(#SVGID_156_);enable-background:new    ;}
	.st206{clip-path:url(#SVGID_158_);enable-background:new    ;}
	.st207{clip-path:url(#SVGID_160_);enable-background:new    ;}
	.st208{clip-path:url(#SVGID_162_);enable-background:new    ;}
	.st209{clip-path:url(#SVGID_164_);enable-background:new    ;}
	.st210{clip-path:url(#SVGID_166_);enable-background:new    ;}
	.st211{clip-path:url(#SVGID_168_);enable-background:new    ;}
	.st212{clip-path:url(#SVGID_170_);enable-background:new    ;}
	.st213{clip-path:url(#SVGID_172_);enable-background:new    ;}
	.st214{clip-path:url(#SVGID_174_);enable-background:new    ;}
	.st215{clip-path:url(#SVGID_176_);enable-background:new    ;}
	.st216{clip-path:url(#SVGID_178_);enable-background:new    ;}
	.st217{clip-path:url(#SVGID_180_);enable-background:new    ;}
	.st218{clip-path:url(#SVGID_182_);enable-background:new    ;}
	.st219{clip-path:url(#SVGID_184_);enable-background:new    ;}
	.st220{fill:#D3D0B7;}
	.st221{fill:url(#XMLID_613_);}
	.st222{fill:#2B2B2B;}
	.st223{opacity:0.74;fill:url(#XMLID_614_);}
	.st224{opacity:0.4;fill:url(#XMLID_615_);}
	.st225{clip-path:url(#XMLID_616_);fill:url(#XMLID_617_);}
	.st226{clip-path:url(#XMLID_616_);fill:url(#XMLID_618_);}
	.st227{opacity:0.45;clip-path:url(#XMLID_616_);fill:url(#XMLID_619_);}
	.st228{opacity:0.45;clip-path:url(#XMLID_616_);fill:url(#XMLID_620_);}
	.st229{fill:#FFF6E3;}
	.st230{fill:#F71C28;}
	.st231{fill:#E70507;}
	.st232{opacity:0.78;fill:url(#XMLID_621_);}
	.st233{fill:url(#XMLID_622_);}
	.st234{fill:url(#XMLID_623_);}
	.st235{fill:url(#XMLID_624_);}
	.st236{fill:url(#XMLID_625_);}
	.st237{fill:url(#XMLID_646_);}
	.st238{fill:url(#XMLID_647_);}
	.st239{fill:url(#XMLID_648_);}
	.st240{opacity:0.58;fill:url(#XMLID_682_);}
	.st241{fill:url(#XMLID_683_);}
	.st242{fill:url(#XMLID_684_);}
	.st243{fill:url(#XMLID_685_);}
	.st244{fill:url(#XMLID_686_);}
	.st245{fill:url(#XMLID_687_);}
	.st246{fill:url(#XMLID_688_);}
	.st247{fill:url(#XMLID_689_);}
	.st248{fill:url(#XMLID_690_);}
	.st249{fill:url(#XMLID_691_);}
	.st250{fill:url(#XMLID_692_);}
	.st251{fill:url(#XMLID_693_);}
	.st252{fill:url(#XMLID_694_);}
	.st253{fill:url(#XMLID_695_);}
	.st254{fill:url(#XMLID_696_);}
	.st255{fill:url(#XMLID_697_);}
	.st256{fill:url(#XMLID_698_);}
	.st257{fill:url(#XMLID_699_);}
	.st258{fill:url(#XMLID_700_);}
	.st259{fill:url(#XMLID_701_);}
	.st260{fill:url(#XMLID_702_);}
	.st261{fill:url(#XMLID_703_);}
	.st262{fill:url(#XMLID_704_);}
	.st263{fill:url(#XMLID_705_);}
	.st264{fill:url(#XMLID_706_);}
	.st265{fill:url(#XMLID_707_);}
	.st266{fill:url(#XMLID_708_);}
	.st267{fill:url(#XMLID_709_);}
	.st268{fill:url(#XMLID_710_);}
	.st269{fill:url(#XMLID_711_);}
	.st270{fill:url(#XMLID_712_);}
	.st271{fill:url(#XMLID_713_);}
	.st272{fill:url(#XMLID_714_);}
	.st273{fill:url(#XMLID_715_);}
	.st274{fill:url(#XMLID_716_);}
	.st275{fill:url(#XMLID_717_);}
	.st276{fill:url(#XMLID_718_);}
	.st277{fill:url(#XMLID_719_);}
	.st278{fill:url(#XMLID_720_);}
	.st279{fill:url(#XMLID_721_);}
	.st280{fill:url(#XMLID_722_);}
	.st281{fill:url(#XMLID_723_);}
	.st282{fill:url(#XMLID_724_);}
	.st283{fill:url(#XMLID_725_);}
	.st284{fill:url(#XMLID_726_);}
	.st285{fill:url(#XMLID_727_);}
	.st286{fill:url(#XMLID_728_);}
	.st287{fill:url(#XMLID_729_);}
	.st288{fill:url(#XMLID_730_);}
	.st289{fill:url(#XMLID_731_);}
	.st290{fill:url(#XMLID_732_);}
	.st291{fill:url(#XMLID_733_);}
	.st292{fill:url(#XMLID_734_);}
	.st293{fill:url(#XMLID_735_);}
	.st294{fill:url(#XMLID_736_);}
	.st295{fill:url(#XMLID_737_);}
	.st296{opacity:0.62;clip-path:url(#XMLID_738_);fill:url(#XMLID_739_);}
	.st297{opacity:0.84;clip-path:url(#XMLID_740_);fill:url(#XMLID_741_);}
	.st298{opacity:0.84;clip-path:url(#XMLID_740_);fill:url(#XMLID_742_);}
	.st299{fill:url(#XMLID_743_);}
	.st300{opacity:0.86;fill:url(#XMLID_744_);}
	.st301{fill:#FABD9C;}
	.st302{fill:#E7E1C2;}
	.st303{fill:#66BB46;}
	.st304{fill:#149C54;}
	.st305{fill:#002500;}
	.st306{fill:#00A64A;}
	.st307{fill:#002700;}
	.st308{fill:#F89C2B;}
	.st309{fill:#005D29;}
	.st310{fill:#007F37;}
	.st311{fill:#53B144;}
	.st312{fill:#FBAF29;}
	.st313{fill:#F16522;}
	.st314{fill:#DDC2B8;}
	.st315{fill:#521A0F;}
	.st316{fill:#C2BEA5;}
	.st317{fill:#404041;}
	.st318{fill:#4A4A4C;}
	.st319{fill:#A6A8AB;}
	.st320{fill:#E6E7E8;}
	.st321{fill:#545456;}
	.st322{fill:#3E3E3F;}
	.st323{fill:#CD8B1E;}
	.st324{fill:#FFDD15;}
	.st325{fill:#FAA925;}
	.st326{fill:#B97F19;}
	.st327{fill:#EAD6C4;}
	.st328{fill:url(#SVGID_185_);}
	.st329{fill:url(#SVGID_186_);}
	.st330{fill:url(#SVGID_187_);}
	.st331{fill:url(#SVGID_188_);}
	.st332{fill:url(#SVGID_189_);}
	.st333{fill:url(#SVGID_190_);}
	.st334{fill:url(#SVGID_191_);}
	.st335{fill:url(#SVGID_192_);}
	.st336{fill:url(#SVGID_193_);}
	.st337{fill:url(#SVGID_194_);}
	.st338{fill:url(#SVGID_195_);}
	.st339{fill:url(#SVGID_196_);}
	.st340{fill:url(#SVGID_197_);}
	.st341{fill:url(#SVGID_198_);}
	.st342{fill:url(#SVGID_199_);}
	.st343{fill:#75BD38;}
	.st344{fill:#474656;}
	.st345{fill:#E5E5E5;}
	.st346{opacity:0.5;fill:#598E38;}
	.st347{opacity:0.55;fill:#598E38;}
	.st348{fill:#D21B00;}
	.st349{fill:#F65138;}
	.st350{opacity:0.67;fill:#B35C45;}
	.st351{fill:#5C5248;}
	.st352{fill:#51555D;}
	.st353{fill:#F86F5B;}
	.st354{opacity:0.15;}
</style>
<g>
	<path class="st343" d="M38.4,20c-0.4-0.4-0.8-2-1.2-2.4c-2.5-2.6-4.7-5.4-4.6-6.9c0.3-3.2,7.3,1.7,7.3,1.7s-0.3-5.1,3.5-5.1
		c3.8,0,3.5,5.1,3.5,5.1s7-4.9,7.3-1.7c0.1,1.5-2.1,4.3-4.6,6.8c-0.4,0.4-0.8,2-1.3,2.4c8.4,2.5,13.9,8,15.3,18.7
		c0.5,3.6,0.7,8.7-0.7,11.7c-1.1,2.5-2.7,4.2-5.5,5c-0.4,0.1-3,0.2-3.4,0.2c-1.7,0.2-6.5,0.8-12,0.8c-4.9,0-8.2-0.5-9.4-0.8
		c-0.4-0.1-0.7-0.2-1-0.3c-3-1-4.3-2.4-5.4-4.7c-1.5-3.1-2.3-6.7-2.3-10.5C23.8,30,30,22.5,38.4,20z"/>
	<path class="st344" d="M32.7,38.2c0,4.8,3.9,8.6,8.6,8.6c4.8,0,8.6-3.9,8.6-8.6c0-4.8-3.9-8.6-8.6-8.6
		C36.6,29.6,32.7,33.5,32.7,38.2z"/>
	<path class="st345" d="M45.5,40.4c0-2.3-2.5-2.6-2.5-2.6c-0.3,0-0.7,0-0.9-0.1v-3.5c1.3,0.4,0.9,1.7,0.9,1.7h2.1c0,0,0.9-3.3-3-3.8
		v-0.3c0-0.4-0.3-0.7-0.7-0.7c-0.4,0-0.8,0.3-0.8,0.7V32c-3.4,0.2-3.5,2.5-3.4,3.7c0,1.2,0.3,2.8,3.4,3.5v3.5c-1.3-0.5-1-2.2-1-2.2
		h-2.5c-0.1,1.1,0,3.3,3.4,3.6v0.6c0,0.4,0.3,0.7,0.8,0.7c0.4,0,0.7-0.3,0.7-0.7v-0.6C44.5,44,45.5,43,45.5,40.4z M39.3,35.8
		c0,0-0.1-1.3,1.2-1.7v3.2C39.2,36.8,39.3,35.8,39.3,35.8z M42,42.7v-3.3C44.1,40.2,43.7,42.3,42,42.7z"/>
	<path class="st346" d="M63.6,38.7C62.4,29.3,58,23.8,51.2,21c-0.1,0-0.2-0.1-0.3-0.1h0c-0.8-0.4-1.7-0.7-2.5-0.9
		c0.2-0.2,0.5-0.8,0.7-1.4c0,0,0,0,0,0c0,0,0,0,0,0c0.2-0.4,0.4-0.8,0.5-1c0.2-0.2,0.4-0.4,0.6-0.6c0,0,0,0,0,0
		c0.3-0.3,0.5-0.6,0.8-0.8c0,0,0.1-0.1,0.1-0.1c0.2-0.2,0.4-0.4,0.5-0.6c0.1-0.1,0.1-0.2,0.2-0.3c0.2-0.3,0.4-0.5,0.6-0.8
		c0,0,0,0,0-0.1c0.2-0.3,0.5-0.6,0.7-0.9c0,0,0-0.1,0.1-0.1c0.6-1,1-1.9,1-2.5c0-0.3-0.1-0.6-0.3-0.8c0,0-0.1-0.1-0.1-0.1h0
		c-0.1,0-0.1-0.1-0.2-0.1c-0.8-0.4-2.2,0.1-3.5,0.8c0,0-0.1,0-0.1,0c0.2,1-0.6,2.1-1.1,2.9c-0.9,1.3-2,2.6-3.1,3.7h0
		c-0.6,0.8,0.1,3.1,1,3.7h-0.1c5.1,2.3,9.1,6.6,10.9,11.9c1,3,1.4,6.3,1.1,9.5c-0.3,3.4-1.2,7.1-3.1,9.9c-1,1.5-2.3,2.9-3.9,3.8
		c1.1-0.1,1.9-0.2,2.4-0.3c0.4-0.1,3-0.1,3.4-0.2c2.8-0.8,4.3-2.6,5.5-5C64.3,47.4,64.1,42.4,63.6,38.7z"/>
	<path class="st347" d="M30.7,24.3c-4.2,3.8-6.8,9.4-6.9,16.3c0,0,0,0,0,0c0,1.8,0.2,3.6,0.6,5.3c0,0,0,0,0,0.1
		c0.1,0.4,0.2,0.8,0.3,1.2c0,0.1,0,0.2,0.1,0.2c0.1,0.3,0.2,0.7,0.3,1c0.1,0.2,0.1,0.3,0.2,0.5c0.1,0.2,0.2,0.5,0.3,0.7
		c0.2,0.4,0.3,0.8,0.5,1.1c0,0,0,0,0,0c0.3,0.7,1.3,1.9,2.5,3.2c0.8,0.6,1.7,1.1,3,1.5c0.3,0.1,0.7,0.2,1,0.3
		c1.2,0.2,4.2,0.7,8.6,0.8C42.7,51,41.7,43,40,37.3C37.9,30.6,35.5,27.1,30.7,24.3z"/>
	<g>
		<g>
			<path class="st348" d="M35.5,41.7c-1,7-4.6,11.9-11.9,13.7c-0.8,0.2-6.1,0.1-6.1,0.1S7.2,47.3,8.3,38.4s12.1-15.1,12.1-15.1
				c1,0.1,6,1.7,6.9,2.1C33.2,27.8,36.7,34.1,35.5,41.7z"/>
			
				<ellipse transform="matrix(0.9925 0.1219 -0.1219 0.9925 4.9393 -1.9231)" class="st349" cx="18.2" cy="39.4" rx="13.7" ry="16.3"/>
			
				<ellipse transform="matrix(0.9925 0.1219 -0.1219 0.9925 4.9393 -1.9231)" class="st51" cx="18.2" cy="39.4" rx="10.5" ry="12.5"/>
			
				<ellipse transform="matrix(0.9925 0.1219 -0.1219 0.9925 4.9392 -1.9231)" class="st349" cx="18.2" cy="39.4" rx="7.8" ry="9.3"/>
			<ellipse transform="matrix(0.9925 0.1219 -0.1219 0.9925 4.9392 -1.9231)" class="st51" cx="18.2" cy="39.4" rx="5.3" ry="6.3"/>
			
				<ellipse transform="matrix(0.9925 0.1219 -0.1219 0.9925 4.9392 -1.9231)" class="st349" cx="18.2" cy="39.4" rx="2.8" ry="3.3"/>
		</g>
		<path class="st350" d="M24.9,44.1l-0.2,0.2l-6.3-5c-0.1,0-0.2,0.1-0.3,0.1c0,0-0.1,0-0.1,0.1l4.9,6.9l-0.2,0.3l4.1,5
			c0.9-0.9,1.8-2,2.5-3.2L24.9,44.1z"/>
		<g>
			<path class="st351" d="M18.3,39.5c0,0,0.1,0,0.1,0l-4.4-6.4L12.9,34l5.1,5.6C18.1,39.6,18.2,39.6,18.3,39.5z"/>
			
				<rect x="0.9" y="27.3" transform="matrix(0.6317 0.7752 -0.7752 0.6317 25.2221 3.3205)" class="st352" width="16.5" height="1.7"/>
			<path class="st349" d="M3.2,21c0,0-0.8-3.1,1.9-2.9c2.7,0.2,3.9,6.7,3.4,9.4L3.2,21z"/>
			<path class="st348" d="M3.2,21c0,0-2.9-1.4-3.2,1.3c-0.3,2.7,5.8,5.2,8.5,5.2L3.2,21z"/>
			<path class="st353" d="M1.4,18.8c0,0,1.2,3.2,7.1,8.7C4.3,20.6,1.4,18.8,1.4,18.8z"/>
		</g>
	</g>
	<path class="st344" d="M50.9,20.9H35.9c0.8-0.6,1.6-3,1-3.7h13.1C49.3,18,50.1,20.3,50.9,20.9z"/>
</g>
</svg>
