<svg width="54" height="54" viewBox="0 0 54 54" fill="none" xmlns="http://www.w3.org/2000/svg">
<path d="M33.75 47.25H20.25V52.3125H33.75V47.25Z" fill="#D8D7DA"/>
<path d="M35.4375 32.4844V40.5L32.9062 43.0312V47.25H21.0938V43.0312L18.5625 40.5V34.5938H31.2188V32.4844C31.2188 31.9249 31.441 31.3884 31.8366 30.9928C32.2322 30.5972 32.7687 30.375 33.3281 30.375C33.8876 30.375 34.4241 30.5972 34.8197 30.9928C35.2153 31.3884 35.4375 31.9249 35.4375 32.4844Z" fill="#FFDAAA"/>
<path d="M39.6562 1.6875V34.5938H35.4375V32.4844C35.4375 31.9249 35.2153 31.3884 34.8197 30.9928C34.4241 30.5972 33.8876 30.375 33.3281 30.375C32.7687 30.375 32.2322 30.5972 31.8366 30.9928C31.441 31.3884 31.2188 31.9249 31.2188 32.4844V34.5938H14.3438V1.6875L16.4521 3.375L18.5614 1.6875L20.6708 3.375L22.7802 1.6875L24.8885 3.375L26.9979 1.6875L29.1073 3.375L31.2177 1.6875L33.3271 3.375L35.4364 1.6875L37.5469 3.375L39.6562 1.6875Z" fill="#FFDA44"/>
<path d="M18.5625 8.4375H17.7188C17.495 8.4375 17.2804 8.5264 17.1221 8.68463C16.9639 8.84286 16.875 9.05747 16.875 9.28125C16.875 9.50503 16.9639 9.71964 17.1221 9.87787C17.2804 10.0361 17.495 10.125 17.7188 10.125H18.5625C18.7863 10.125 19.0009 10.0361 19.1591 9.87787C19.3174 9.71964 19.4062 9.50503 19.4062 9.28125C19.4062 9.05747 19.3174 8.84286 19.1591 8.68463C19.0009 8.5264 18.7863 8.4375 18.5625 8.4375Z" fill="black"/>
<path d="M36.2812 8.4375H23.625C23.4012 8.4375 23.1866 8.5264 23.0284 8.68463C22.8701 8.84286 22.7812 9.05747 22.7812 9.28125C22.7812 9.50503 22.8701 9.71964 23.0284 9.87787C23.1866 10.0361 23.4012 10.125 23.625 10.125H36.2812C36.505 10.125 36.7196 10.0361 36.8779 9.87787C37.0361 9.71964 37.125 9.50503 37.125 9.28125C37.125 9.05747 37.0361 8.84286 36.8779 8.68463C36.7196 8.5264 36.505 8.4375 36.2812 8.4375Z" fill="black"/>
<path d="M18.5625 10.9688H17.7188C17.495 10.9688 17.2804 11.0576 17.1221 11.2159C16.9639 11.3741 16.875 11.5887 16.875 11.8125C16.875 12.0363 16.9639 12.2509 17.1221 12.4091C17.2804 12.5674 17.495 12.6562 17.7188 12.6562H18.5625C18.7863 12.6562 19.0009 12.5674 19.1591 12.4091C19.3174 12.2509 19.4062 12.0363 19.4062 11.8125C19.4062 11.5887 19.3174 11.3741 19.1591 11.2159C19.0009 11.0576 18.7863 10.9688 18.5625 10.9688Z" fill="black"/>
<path d="M36.2812 10.9688H23.625C23.4012 10.9688 23.1866 11.0576 23.0284 11.2159C22.8701 11.3741 22.7812 11.5887 22.7812 11.8125C22.7812 12.0363 22.8701 12.2509 23.0284 12.4091C23.1866 12.5674 23.4012 12.6562 23.625 12.6562H36.2812C36.505 12.6562 36.7196 12.5674 36.8779 12.4091C37.0361 12.2509 37.125 12.0363 37.125 11.8125C37.125 11.5887 37.0361 11.3741 36.8779 11.2159C36.7196 11.0576 36.505 10.9688 36.2812 10.9688Z" fill="black"/>
<path d="M18.5625 13.5H17.7188C17.495 13.5 17.2804 13.5889 17.1221 13.7471C16.9639 13.9054 16.875 14.12 16.875 14.3438C16.875 14.5675 16.9639 14.7821 17.1221 14.9404C17.2804 15.0986 17.495 15.1875 17.7188 15.1875H18.5625C18.7863 15.1875 19.0009 15.0986 19.1591 14.9404C19.3174 14.7821 19.4062 14.5675 19.4062 14.3438C19.4062 14.12 19.3174 13.9054 19.1591 13.7471C19.0009 13.5889 18.7863 13.5 18.5625 13.5Z" fill="black"/>
<path d="M36.2812 13.5H23.625C23.4012 13.5 23.1866 13.5889 23.0284 13.7471C22.8701 13.9054 22.7812 14.12 22.7812 14.3438C22.7812 14.5675 22.8701 14.7821 23.0284 14.9404C23.1866 15.0986 23.4012 15.1875 23.625 15.1875H36.2812C36.505 15.1875 36.7196 15.0986 36.8779 14.9404C37.0361 14.7821 37.125 14.5675 37.125 14.3438C37.125 14.12 37.0361 13.9054 36.8779 13.7471C36.7196 13.5889 36.505 13.5 36.2812 13.5Z" fill="black"/>
<path d="M18.5625 16.0312H17.7188C17.495 16.0312 17.2804 16.1201 17.1221 16.2784C16.9639 16.4366 16.875 16.6512 16.875 16.875C16.875 17.0988 16.9639 17.3134 17.1221 17.4716C17.2804 17.6298 17.495 17.7187 17.7188 17.7187H18.5625C18.7863 17.7187 19.0009 17.6298 19.1591 17.4716C19.3174 17.3134 19.4062 17.0988 19.4062 16.875C19.4062 16.6512 19.3174 16.4366 19.1591 16.2784C19.0009 16.1201 18.7863 16.0312 18.5625 16.0312Z" fill="black"/>
<path d="M36.2812 16.0312H23.625C23.4012 16.0312 23.1866 16.1201 23.0284 16.2784C22.8701 16.4366 22.7812 16.6512 22.7812 16.875C22.7812 17.0988 22.8701 17.3134 23.0284 17.4716C23.1866 17.6298 23.4012 17.7187 23.625 17.7187H36.2812C36.505 17.7187 36.7196 17.6298 36.8779 17.4716C37.0361 17.3134 37.125 17.0988 37.125 16.875C37.125 16.6512 37.0361 16.4366 36.8779 16.2784C36.7196 16.1201 36.505 16.0312 36.2812 16.0312Z" fill="black"/>
<path d="M18.5625 18.5625H17.7188C17.495 18.5625 17.2804 18.6514 17.1221 18.8096C16.9639 18.9679 16.875 19.1825 16.875 19.4062C16.875 19.63 16.9639 19.8446 17.1221 20.0029C17.2804 20.1611 17.495 20.25 17.7188 20.25H18.5625C18.7863 20.25 19.0009 20.1611 19.1591 20.0029C19.3174 19.8446 19.4062 19.63 19.4062 19.4062C19.4062 19.1825 19.3174 18.9679 19.1591 18.8096C19.0009 18.6514 18.7863 18.5625 18.5625 18.5625Z" fill="black"/>
<path d="M36.2812 18.5625H23.625C23.4012 18.5625 23.1866 18.6514 23.0284 18.8096C22.8701 18.9679 22.7812 19.1825 22.7812 19.4062C22.7812 19.63 22.8701 19.8446 23.0284 20.0029C23.1866 20.1611 23.4012 20.25 23.625 20.25H36.2812C36.505 20.25 36.7196 20.1611 36.8779 20.0029C37.0361 19.8446 37.125 19.63 37.125 19.4062C37.125 19.1825 37.0361 18.9679 36.8779 18.8096C36.7196 18.6514 36.505 18.5625 36.2812 18.5625Z" fill="black"/>
<path d="M18.5625 21.0937H17.7188C17.495 21.0937 17.2804 21.1826 17.1221 21.3409C16.9639 21.4991 16.875 21.7137 16.875 21.9375C16.875 22.1613 16.9639 22.3759 17.1221 22.5341C17.2804 22.6923 17.495 22.7812 17.7188 22.7812H18.5625C18.7863 22.7812 19.0009 22.6923 19.1591 22.5341C19.3174 22.3759 19.4062 22.1613 19.4062 21.9375C19.4062 21.7137 19.3174 21.4991 19.1591 21.3409C19.0009 21.1826 18.7863 21.0937 18.5625 21.0937Z" fill="black"/>
<path d="M36.2812 21.0937H23.625C23.4012 21.0937 23.1866 21.1826 23.0284 21.3409C22.8701 21.4991 22.7812 21.7137 22.7812 21.9375C22.7812 22.1613 22.8701 22.3759 23.0284 22.5341C23.1866 22.6923 23.4012 22.7812 23.625 22.7812H36.2812C36.505 22.7812 36.7196 22.6923 36.8779 22.5341C37.0361 22.3759 37.125 22.1613 37.125 21.9375C37.125 21.7137 37.0361 21.4991 36.8779 21.3409C36.7196 21.1826 36.505 21.0937 36.2812 21.0937Z" fill="black"/>
<path d="M18.5625 23.625H17.7188C17.495 23.625 17.2804 23.7139 17.1221 23.8721C16.9639 24.0304 16.875 24.245 16.875 24.4687C16.875 24.6925 16.9639 24.9071 17.1221 25.0654C17.2804 25.2236 17.495 25.3125 17.7188 25.3125H18.5625C18.7863 25.3125 19.0009 25.2236 19.1591 25.0654C19.3174 24.9071 19.4062 24.6925 19.4062 24.4687C19.4062 24.245 19.3174 24.0304 19.1591 23.8721C19.0009 23.7139 18.7863 23.625 18.5625 23.625Z" fill="black"/>
<path d="M36.2812 23.625H23.625C23.4012 23.625 23.1866 23.7139 23.0284 23.8721C22.8701 24.0304 22.7812 24.245 22.7812 24.4687C22.7812 24.6925 22.8701 24.9071 23.0284 25.0654C23.1866 25.2236 23.4012 25.3125 23.625 25.3125H36.2812C36.505 25.3125 36.7196 25.2236 36.8779 25.0654C37.0361 24.9071 37.125 24.6925 37.125 24.4687C37.125 24.245 37.0361 24.0304 36.8779 23.8721C36.7196 23.7139 36.505 23.625 36.2812 23.625Z" fill="black"/>
<path d="M21.0938 7.59375C20.87 7.59375 20.6554 7.68265 20.4971 7.84088C20.3389 7.99911 20.25 8.21372 20.25 8.4375V25.3125C20.25 25.5363 20.3389 25.7509 20.4971 25.9091C20.6554 26.0674 20.87 26.1562 21.0938 26.1562C21.3175 26.1562 21.5321 26.0674 21.6904 25.9091C21.8486 25.7509 21.9375 25.5363 21.9375 25.3125V8.4375C21.9375 8.21372 21.8486 7.99911 21.6904 7.84088C21.5321 7.68265 21.3175 7.59375 21.0938 7.59375Z" fill="black"/>
<path d="M40.0222 0.927075C39.8789 0.858225 39.719 0.831204 39.561 0.849114C39.403 0.867024 39.2532 0.929139 39.1289 1.02832L37.5469 2.295L35.9638 1.02832C35.8139 0.908996 35.628 0.844023 35.4364 0.844023C35.2449 0.844023 35.059 0.908996 34.9091 1.02832L33.3271 2.295L31.744 1.02832C31.5943 0.909008 31.4086 0.844032 31.2172 0.844032C31.0258 0.844032 30.84 0.909008 30.6903 1.02832L29.1073 2.29395L27.5252 1.02832C27.3756 0.909008 27.1898 0.844032 26.9984 0.844032C26.807 0.844032 26.6213 0.909008 26.4716 1.02832L24.8885 2.29395L23.3065 1.02832C23.1568 0.909008 22.9711 0.844032 22.7797 0.844032C22.5883 0.844032 22.4025 0.909008 22.2529 1.02832L20.6708 2.29395L19.0888 1.02832C18.9389 0.908996 18.753 0.844023 18.5614 0.844023C18.3699 0.844023 18.184 0.908996 18.0341 1.02832L16.4521 2.29395L14.8711 1.02832C14.7469 0.929204 14.5972 0.867141 14.4394 0.849268C14.2815 0.831395 14.1217 0.858439 13.9785 0.927291C13.8353 0.996142 13.7144 1.10401 13.6298 1.23849C13.5451 1.37297 13.5001 1.5286 13.5 1.6875V34.5938C13.5 34.8175 13.5889 35.0321 13.7471 35.1904C13.9054 35.3486 14.12 35.4375 14.3438 35.4375H17.7188V40.5C17.7187 40.7238 17.8074 40.9385 17.9655 41.097L20.25 43.3804V46.4062C20.0262 46.4062 19.8116 46.4951 19.6534 46.6534C19.4951 46.8116 19.4062 47.0262 19.4062 47.25V52.3125C19.4062 52.5363 19.4951 52.7509 19.6534 52.9091C19.8116 53.0674 20.0262 53.1562 20.25 53.1562H33.75C33.9738 53.1562 34.1884 53.0674 34.3466 52.9091C34.5049 52.7509 34.5938 52.5363 34.5938 52.3125V47.25C34.5938 47.0262 34.5049 46.8116 34.3466 46.6534C34.1884 46.4951 33.9738 46.4062 33.75 46.4062V43.3804L36.0345 41.097C36.1926 40.9385 36.2813 40.7238 36.2812 40.5V35.4375H39.6562C39.88 35.4375 40.0946 35.3486 40.2529 35.1904C40.4111 35.0321 40.5 34.8175 40.5 34.5938V1.6875C40.5001 1.5286 40.4554 1.3729 40.3708 1.23835C40.2863 1.1038 40.1654 0.995896 40.0222 0.927075ZM32.9062 51.4688H21.0938V48.0938H32.9062V51.4688ZM34.5938 40.1509L32.3093 42.4343C32.1512 42.5927 32.0624 42.8074 32.0625 43.0312V46.4062H25.3125V43.0312C25.3125 42.8075 25.2236 42.5929 25.0654 42.4346C24.9071 42.2764 24.6925 42.1875 24.4688 42.1875C24.245 42.1875 24.0304 42.2764 23.8721 42.4346C23.7139 42.5929 23.625 42.8075 23.625 43.0312V46.4062H21.9375V43.0312C21.9376 42.8074 21.8488 42.5927 21.6907 42.4343L19.4062 40.1509V35.4375H30.375V37.4477L28.6327 38.3189C28.1409 38.5625 27.7273 38.9391 27.4387 39.4059C27.1501 39.8727 26.9981 40.411 27 40.9598V42.1875C27 42.4113 27.0889 42.6259 27.2471 42.7841C27.4054 42.9424 27.62 43.0312 27.8438 43.0312C28.0675 43.0312 28.2821 42.9424 28.4404 42.7841C28.5986 42.6259 28.6875 42.4113 28.6875 42.1875V40.9598C28.6867 40.7247 28.7517 40.494 28.8753 40.294C28.9989 40.094 29.1761 39.9326 29.3868 39.8282L31.5963 38.7239C31.7364 38.6537 31.8542 38.5458 31.9365 38.4125C32.0189 38.2791 32.0625 38.1255 32.0625 37.9688V32.4844C32.0625 32.1487 32.1958 31.8268 32.4332 31.5894C32.6705 31.3521 32.9925 31.2188 33.3281 31.2188C33.6638 31.2188 33.9857 31.3521 34.2231 31.5894C34.4604 31.8268 34.5938 32.1487 34.5938 32.4844V40.1509ZM38.8125 33.75H36.2812V32.4844C36.2812 31.7012 35.9701 30.95 35.4163 30.3962C34.8625 29.8424 34.1113 29.5313 33.3281 29.5313C32.5449 29.5313 31.7938 29.8424 31.24 30.3962C30.6861 30.95 30.375 31.7012 30.375 32.4844V33.75H15.1875V3.44356L15.9258 4.03418C16.0754 4.1535 16.2612 4.21848 16.4526 4.21848C16.644 4.21848 16.8297 4.1535 16.9794 4.03418L18.5614 2.76856L20.1435 4.03418C20.2933 4.15351 20.4793 4.21849 20.6708 4.21849C20.8624 4.21849 21.0483 4.15351 21.1982 4.03418L22.7802 2.76856L24.3622 4.03418C24.5119 4.1535 24.6976 4.21848 24.889 4.21848C25.0805 4.21848 25.2662 4.1535 25.4159 4.03418L26.9979 2.76856L28.581 4.03418C28.7306 4.1535 28.9164 4.21848 29.1078 4.21848C29.2992 4.21848 29.4849 4.1535 29.6346 4.03418L31.2177 2.76856L32.7997 4.03418C32.9494 4.1535 33.1351 4.21848 33.3265 4.21848C33.518 4.21848 33.7037 4.1535 33.8534 4.03418L35.4364 2.7675L37.0195 4.03418C37.1692 4.1535 37.3549 4.21848 37.5463 4.21848C37.7378 4.21848 37.9235 4.1535 38.0732 4.03418L38.8125 3.4425V33.75Z" fill="black"/>
</svg>
