<svg width="101" height="101" viewBox="0 0 101 101" fill="none" xmlns="http://www.w3.org/2000/svg">
<circle cx="50.4" cy="50.4" r="50.4" fill="#49A341"/>
<path d="M72.1999 26.5V52.7L51.1999 40.3L50.5999 39.9L49.9999 40.3L28.4999 53V26.5L16.8999 33.4V72L17.3999 71.7V72L50.5999 52.3L83.7999 72V59.6V33.4L72.1999 26.5Z" fill="white"/>
<path d="M50.5998 13.9L38.2998 21.2V33.1H39.4998L50.5998 26.5L61.6998 33.1H62.0998V20.7L50.5998 13.9Z" fill="white"/>
<path d="M50.6 80.4L39.7 87.1L29.5 79.9L50.6 67.1L71.8 80L61.6 87.1L50.6 80.4Z" fill="white"/>
<path d="M50.6999 39.9H50.5999L49.9999 40.3L28.4999 53V33.1H17.3999L16.8999 33.4V72L17.3999 71.7V72L50.5999 52.3H50.6999V39.9Z" fill="white"/>
<path d="M72.2 34.9V52.7L51.2 40.3L50.7 39.9V52.3L83.8 72V59.6V34.9H72.2Z" fill="white"/>
<path d="M28.5999 65.4V53H28.4999V26.5L16.8999 33.4V72L17.3999 71.7V72L28.5999 65.4Z" fill="white"/>
<path d="M72.1998 52.7H72.0999V65L83.7999 72V59.6V33.4L72.1998 26.5V52.7Z" fill="white"/>
<path d="M50.3998 14L38.2998 21.2V33.1H39.4998L50.3998 26.6V14Z" fill="white"/>
<path d="M50.7 67.1H50.6L29.5 79.9L39.7 87.1L50.6 80.4H50.7V67.1Z" fill="white"/>
</svg>
