<svg width="24" height="32" viewBox="0 0 32 32" fill="none" xmlns="http://www.w3.org/2000/svg">
    <path d="M16 32C24.8366 32 32 24.8366 32 16C32 7.16344 24.8366 0 16 0C7.16344 0 0 7.16344 0 16C0 24.8366 7.16344 32 16 32Z" fill="#F6D738"/>
    <path d="M16 29.5812C23.5006 29.5812 29.5811 23.5007 29.5811 16C29.5811 8.49941 23.5006 2.41895 16 2.41895C8.49935 2.41895 2.41888 8.49941 2.41888 16C2.41888 23.5007 8.49935 29.5812 16 29.5812Z" fill="#F3CC30"/>
    <path d="M23.1055 4.40942C24.456 6.52092 25.2421 9.03053 25.2421 11.7215C25.2421 19.2201 19.1647 25.3027 11.661 25.3027C9.0557 25.3027 6.62168 24.5669 4.55554 23.297C6.9694 27.0664 11.1924 29.5609 15.9999 29.5609C23.4985 29.5609 29.581 23.4834 29.581 15.9849C29.581 11.0866 26.9908 6.79809 23.1055 4.40942Z" fill="#EDBD31"/>
    <path d="M4.79742 17.2448C4.79742 10.623 10.1644 5.25609 16.7861 5.25609C20.6563 5.25609 24.0982 7.09042 26.2903 9.93766C24.2192 6.34459 20.3388 3.92065 15.8941 3.92065C9.27239 3.92065 3.90546 9.28758 3.90546 15.9093C3.90546 18.6608 4.8327 21.1956 6.38987 23.2164C5.37695 21.4577 4.79742 19.4167 4.79742 17.2448Z" fill="#F7DB5E"/>
    <path d="M17.1187 7.23657V8.96508C17.8142 9.07594 18.3786 9.30775 18.8221 9.65547C19.2655 10.0032 19.6838 10.5374 20.0819 11.253L18.3584 12.2155C17.8394 11.2731 17.1641 10.8044 16.3276 10.8044C15.8085 10.8044 15.3802 10.9556 15.0375 11.263C14.6948 11.5704 14.5235 11.9534 14.5235 12.412C14.5235 12.8303 14.6595 13.178 14.9367 13.4552C15.2088 13.7273 15.7531 14.0448 16.5795 14.4177C17.2901 14.7402 17.8797 15.0476 18.3433 15.3298C18.8069 15.617 19.1597 15.8892 19.3915 16.1563C20.0567 16.8718 20.3893 17.7437 20.3893 18.7616C20.3893 19.7644 20.0869 20.6463 19.4873 21.4073C18.8926 22.1682 18.0964 22.6772 17.1036 22.9443V24.7736H15.5565V22.9997C14.4025 22.8133 13.5257 22.4152 12.9159 21.8104C12.3112 21.2057 11.8627 20.2684 11.5754 19.0035L13.5156 18.5953C13.7827 19.4923 14.1052 20.1273 14.4882 20.5103C14.8863 20.8731 15.4205 21.0596 16.0857 21.0596C16.7307 21.0596 17.275 20.853 17.7084 20.4347C18.1367 20.0215 18.3534 19.4923 18.3534 18.8372C18.3534 18.2526 18.172 17.789 17.8142 17.4363C17.6328 17.2649 17.3606 17.0734 17.0079 16.8567C16.6501 16.64 16.1965 16.4082 15.6422 16.1563C14.4983 15.6422 13.7524 15.1736 13.3896 14.7452C12.8202 14.1052 12.5329 13.3342 12.5329 12.4422C12.5329 12.0189 12.5984 11.6259 12.7345 11.258C12.8706 10.8952 13.0671 10.5626 13.3191 10.2652C13.5761 9.96791 13.8936 9.7109 14.2665 9.49421C14.6444 9.27752 15.0677 9.10618 15.5465 8.98019V7.25169H17.1187V7.23657Z" fill="#D49A34"/>
</svg>
