<svg width="30" height="27" viewBox="0 0 30 27" fill="none" xmlns="http://www.w3.org/2000/svg">
<path d="M16.6306 0.832506C16.397 0.929974 16.2445 1.15742 16.2445 1.40981V8.25624H0.62481C0.279925 8.25624 0 8.53617 0 8.88105L0 18.8777C0 19.2226 0.279925 19.5025 0.62481 19.5025H16.2446V26.3752C16.2446 26.6276 16.3971 26.855 16.6295 26.9525C16.8631 27.0487 17.1318 26.9963 17.3105 26.8175L29.8163 14.353C29.9338 14.2355 30 14.0768 30 13.9106C30 13.7445 29.9338 13.5857 29.8175 13.4683L17.3117 0.967461C17.133 0.788752 16.8644 0.735039 16.6306 0.832506Z" fill="#e2e0e0"/>
</svg>
