<svg width="25" height="25" viewBox="0 0 25 25" fill="none" xmlns="http://www.w3.org/2000/svg">
<path d="M2.34375 12.5C2.34493 13.5356 2.75685 14.5285 3.48916 15.2608C4.22147 15.9931 5.21436 16.4051 6.25 16.4062H11.7188V17.9688H6.25C4.7996 17.9688 3.4086 17.3926 2.38301 16.367C1.35742 15.3414 0.78125 13.9504 0.78125 12.5C0.78125 11.0496 1.35742 9.6586 2.38301 8.63301C3.4086 7.60742 4.7996 7.03125 6.25 7.03125H11.7188V8.59375H6.25C5.21436 8.59493 4.22147 9.00685 3.48916 9.73916C2.75685 10.4715 2.34493 11.4644 2.34375 12.5Z" fill="white"/>
<path d="M18.75 17.9688H13.2812V16.4062H18.75C19.786 16.4062 20.7796 15.9947 21.5121 15.2621C22.2447 14.5296 22.6562 13.536 22.6562 12.5C22.6562 11.464 22.2447 10.4704 21.5121 9.73786C20.7796 9.0053 19.786 8.59375 18.75 8.59375H13.2812V7.03125H18.75C20.2004 7.03125 21.5914 7.60742 22.617 8.63301C23.6426 9.6586 24.2188 11.0496 24.2188 12.5C24.2188 13.9504 23.6426 15.3414 22.617 16.367C21.5914 17.3926 20.2004 17.9688 18.75 17.9688Z" fill="white"/>
<path d="M6.83594 13.2494H18.1641V11.6869H6.83594V13.2494Z" fill="white"/>
</svg>
